<?xml version="1.0" encoding="UTF-8" standalone="no"?>
<!-- Created with Inkscape (http://www.inkscape.org/) -->

<svg
   xmlns:dc="http://purl.org/dc/elements/1.1/"
   xmlns:cc="http://creativecommons.org/ns#"
   xmlns:rdf="http://www.w3.org/1999/02/22-rdf-syntax-ns#"
   xmlns:svg="http://www.w3.org/2000/svg"
   xmlns="http://www.w3.org/2000/svg"
   xmlns:xlink="http://www.w3.org/1999/xlink"
   xmlns:sodipodi="http://sodipodi.sourceforge.net/DTD/sodipodi-0.dtd"
   xmlns:inkscape="http://www.inkscape.org/namespaces/inkscape"
   width="128"
   height="128"
   viewBox="0 0 128 128"
   id="svg2"
   version="1.1"
   inkscape:version="0.91 r13725"
   sodipodi:docname="logosvg.svg"
   inkscape:export-filename="/Users/robina/Chrome_extensions/github-linkify-cmssw/logo.png"
   inkscape:export-xdpi="90"
   inkscape:export-ydpi="90">
  <defs
     id="defs4">
    <linearGradient
       inkscape:collect="always"
       id="linearGradient5861">
      <stop
         style="stop-color:#c7c9f4;stop-opacity:1;"
         offset="0"
         id="stop5863" />
      <stop
         style="stop-color:#c7c9f4;stop-opacity:0;"
         offset="1"
         id="stop5865" />
    </linearGradient>
    <radialGradient
       inkscape:collect="always"
       xlink:href="#linearGradient5861"
       id="radialGradient5867"
       cx="66.002472"
       cy="72.759445"
       fx="66.002472"
       fy="72.759445"
       r="27.785404"
       gradientTransform="matrix(0.61493723,-0.99184965,0.8000063,0.4959962,-32.792921,102.13556)"
       gradientUnits="userSpaceOnUse" />
    <filter
       inkscape:collect="always"
       style="color-interpolation-filters:sRGB"
       id="filter6209"
       x="-0.14718785"
       width="1.2943757"
       y="-0.1010478"
       height="1.2020956">
      <feGaussianBlur
         inkscape:collect="always"
         stdDeviation="2.4848729"
         id="feGaussianBlur6211" />
    </filter>
    <filter
       inkscape:collect="always"
       style="color-interpolation-filters:sRGB"
       id="filter6213"
       x="-0.14218845"
       width="1.2843769"
       y="-0.10380178"
       height="1.2076036">
      <feGaussianBlur
         inkscape:collect="always"
         stdDeviation="2.5697021"
         id="feGaussianBlur6215" />
    </filter>
  </defs>
  <sodipodi:namedview
     id="base"
     pagecolor="#ffffff"
     bordercolor="#666666"
     borderopacity="1.0"
     inkscape:pageopacity="0.0"
     inkscape:pageshadow="2"
     inkscape:zoom="5.6568543"
     inkscape:cx="8.3639699"
     inkscape:cy="63.602201"
     inkscape:document-units="px"
     inkscape:current-layer="layer2"
     showgrid="false"
     units="px"
     inkscape:snap-grids="true"
     inkscape:snap-to-guides="true"
     inkscape:window-width="2048"
     inkscape:window-height="1103"
     inkscape:window-x="0"
     inkscape:window-y="0"
     inkscape:window-maximized="0" />
  <metadata
     id="metadata7">
    <rdf:RDF>
      <cc:Work
         rdf:about="">
        <dc:format>image/svg+xml</dc:format>
        <dc:type
           rdf:resource="http://purl.org/dc/dcmitype/StillImage" />
        <dc:title></dc:title>
      </cc:Work>
    </rdf:RDF>
  </metadata>
  <g
     inkscape:label="Layer 1"
     inkscape:groupmode="layer"
     id="layer1"
     transform="translate(0,-924.36216)"
     style="display:none">
    <rect
       style="opacity:0.7875;fill:#2f0000;fill-opacity:1;stroke:none;stroke-width:1.875;stroke-miterlimit:4;stroke-dasharray:none;stroke-opacity:1"
       id="rect3336"
       width="96"
       height="96"
       x="16"
       y="940.36218" />
  </g>
  <g
     inkscape:groupmode="layer"
     id="layer4"
     inkscape:label="ellipse"
     style="display:none">
    <ellipse
       style="opacity:1;fill:none;fill-opacity:1;stroke:#8070e3;stroke-width:10.48026943;stroke-miterlimit:4;stroke-dasharray:none;stroke-opacity:1"
       id="path4149"
       cx="94.226341"
       cy="30.207605"
       rx="24.946329"
       ry="12.197665"
       transform="matrix(0.86536272,0.50114605,-0.51443894,0.85752701,0,0)" />
  </g>
  <g
     style="display:inline"
     inkscape:label="G glow"
     id="g5869"
     inkscape:groupmode="layer">
    <text
       sodipodi:linespacing="125%"
       id="text5871"
       y="75"
       x="14.75"
       style="font-style:normal;font-variant:normal;font-weight:bold;font-stretch:normal;font-size:90px;line-height:125%;font-family:Consolas;-inkscape-font-specification:'Consolas, Bold';text-align:start;letter-spacing:0px;word-spacing:0px;writing-mode:lr-tb;text-anchor:start;fill:#cfd5fc;fill-opacity:1;stroke:none;stroke-width:0.30000001;stroke-linecap:butt;stroke-linejoin:miter;stroke-miterlimit:4;stroke-dasharray:none;stroke-opacity:1;filter:url(#filter6213)"
       xml:space="preserve"
       transform="matrix(1.0239788,0,0,1.0239788,-0.92324134,-1.1103061)"><tspan
         y="75"
         x="14.75"
         id="tspan5873"
         sodipodi:role="line">G</tspan></text>
  </g>
  <g
     inkscape:groupmode="layer"
     id="layer2"
     inkscape:label="G"
     style="display:inline">
    <text
       xml:space="preserve"
       style="font-style:normal;font-variant:normal;font-weight:bold;font-stretch:normal;font-size:90px;line-height:125%;font-family:Consolas;-inkscape-font-specification:'Consolas, Bold';text-align:start;letter-spacing:0px;word-spacing:0px;writing-mode:lr-tb;text-anchor:start;fill:#000000;fill-opacity:1;stroke:none;stroke-width:0.30000001;stroke-linecap:butt;stroke-linejoin:miter;stroke-miterlimit:4;stroke-dasharray:none;stroke-opacity:1"
       x="14.75"
       y="75"
       id="text4140"
       sodipodi:linespacing="125%"><tspan
         sodipodi:role="line"
         id="tspan4142"
         x="14.75"
         y="75">G</tspan></text>
  </g>
  <g
     style="display:inline"
     inkscape:label="C glow"
     id="g5875"
     inkscape:groupmode="layer">
    <text
       sodipodi:linespacing="125%"
       id="text5877"
       y="110.75"
       x="66.75"
       style="font-style:normal;font-variant:normal;font-weight:bold;font-stretch:normal;font-size:90px;line-height:125%;font-family:Consolas;-inkscape-font-specification:'Consolas, Bold';text-align:start;letter-spacing:0px;word-spacing:0px;writing-mode:lr-tb;text-anchor:start;fill:#cfd5fc;fill-opacity:1;stroke:none;stroke-width:0.30000001;stroke-linecap:butt;stroke-linejoin:miter;stroke-miterlimit:4;stroke-dasharray:none;stroke-opacity:1;filter:url(#filter6209)"
       xml:space="preserve"
       transform="matrix(1.0585275,0,0,1.0421503,-4.9497519,-3.457668)"><tspan
         y="110.75"
         x="66.75"
         id="tspan5879"
         sodipodi:role="line">C</tspan></text>
  </g>
  <g
     inkscape:groupmode="layer"
     id="layer3"
     inkscape:label="C"
     style="display:inline">
    <text
       xml:space="preserve"
       style="font-style:normal;font-variant:normal;font-weight:bold;font-stretch:normal;font-size:90px;line-height:125%;font-family:Consolas;-inkscape-font-specification:'Consolas, Bold';text-align:start;letter-spacing:0px;word-spacing:0px;writing-mode:lr-tb;text-anchor:start;fill:#000000;fill-opacity:1;stroke:none;stroke-width:0.30000001;stroke-linecap:butt;stroke-linejoin:miter;stroke-miterlimit:4;stroke-dasharray:none;stroke-opacity:1"
       x="66.75"
       y="110.75"
       id="text4144"
       sodipodi:linespacing="125%"><tspan
         sodipodi:role="line"
         id="tspan4146"
         x="66.75"
         y="110.75">C</tspan></text>
  </g>
  <g
     style="display:none"
     inkscape:label="bit on top of C"
     id="g4204"
     inkscape:groupmode="layer">
    <path
       style="color:#000000;font-style:normal;font-variant:normal;font-weight:normal;font-stretch:normal;font-size:medium;line-height:normal;font-family:sans-serif;text-indent:0;text-align:start;text-decoration:none;text-decoration-line:none;text-decoration-style:solid;text-decoration-color:#000000;letter-spacing:normal;word-spacing:normal;text-transform:none;direction:ltr;block-progression:tb;writing-mode:lr-tb;baseline-shift:baseline;text-anchor:start;white-space:normal;clip-rule:nonzero;display:inline;overflow:visible;visibility:visible;opacity:1;isolation:auto;mix-blend-mode:normal;color-interpolation:sRGB;color-interpolation-filters:linearRGB;solid-color:#000000;solid-opacity:1;fill:#8070e3;fill-opacity:1;fill-rule:nonzero;stroke:none;stroke-width:10.48026943;stroke-linecap:butt;stroke-linejoin:miter;stroke-miterlimit:4;stroke-dasharray:none;stroke-dashoffset:0;stroke-opacity:1;color-rendering:auto;image-rendering:auto;shape-rendering:auto;text-rendering:auto;enable-background:accumulate"
       d="m 77.880533,60.023438 c -0.158292,0.165396 -0.320249,0.325291 -0.474272,0.496093 -2.139652,2.346101 -3.825265,5.196312 -5.066261,8.53711 4.03166,2.708391 7.174999,5.749836 8.991055,8.396484 0.456813,0.665739 0.791105,1.256506 1.067111,1.804687 0.132956,-1.857913 0.390877,-3.612861 0.795811,-5.246093 0.602887,-2.460938 1.537362,-4.570313 2.803426,-6.328125 0.169699,-0.23397 0.361012,-0.4422 0.542597,-0.66211 -2.430714,-2.501861 -5.340464,-4.860182 -8.659467,-6.998046 z"
       id="path4232"
       inkscape:connector-curvature="0" />
  </g>
  <g
     inkscape:label="bit on top of g"
     id="g4151"
     inkscape:groupmode="layer"
     style="display:none">
    <path
       style="color:#000000;font-style:normal;font-variant:normal;font-weight:normal;font-stretch:normal;font-size:medium;line-height:normal;font-family:sans-serif;text-indent:0;text-align:start;text-decoration:none;text-decoration-line:none;text-decoration-style:solid;text-decoration-color:#000000;letter-spacing:normal;word-spacing:normal;text-transform:none;direction:ltr;block-progression:tb;writing-mode:lr-tb;baseline-shift:baseline;text-anchor:start;white-space:normal;clip-rule:nonzero;display:inline;overflow:visible;visibility:visible;opacity:1;isolation:auto;mix-blend-mode:normal;color-interpolation:sRGB;color-interpolation-filters:linearRGB;solid-color:#000000;solid-opacity:1;fill:#8070e3;fill-opacity:1;fill-rule:nonzero;stroke:none;stroke-width:10.48026943;stroke-linecap:butt;stroke-linejoin:miter;stroke-miterlimit:4;stroke-dasharray:none;stroke-dashoffset:0;stroke-opacity:1;color-rendering:auto;image-rendering:auto;shape-rendering:auto;text-rendering:auto;enable-background:accumulate"
       d="m 53.305689,51.621094 c -1.315327,0.0088 -2.622906,0.115438 -3.893689,0.328125 l 0,10.84375 c 0.793955,-0.439633 2.432882,-0.922348 5.363838,-0.712891 1.646307,0.117651 3.549482,0.470605 5.586162,1.041016 l 0,-10.773438 c -1.597628,-0.320657 -3.171341,-0.538846 -4.704874,-0.648437 -0.78162,-0.05586 -1.566949,-0.08339 -2.351437,-0.07813 z"
       id="path4202"
       inkscape:connector-curvature="0" />
  </g>
  <g
     style="display:none"
     inkscape:label="C copy"
     id="g4334"
     inkscape:groupmode="layer" />
  <g
     inkscape:groupmode="layer"
     id="layer5"
     inkscape:label="chain part"
     style="display:inline">
    <path
       style="font-style:normal;font-variant:normal;font-weight:bold;font-stretch:normal;font-size:90px;line-height:125%;font-family:Consolas;-inkscape-font-specification:'Consolas, Bold';text-align:start;letter-spacing:0px;word-spacing:0px;writing-mode:lr-tb;text-anchor:start;display:inline;fill:#8070e3;fill-opacity:1;stroke:none;stroke-width:1px;stroke-linecap:butt;stroke-linejoin:miter;stroke-opacity:1"
       d="m 86.349609,67.021484 c -0.176479,0.21991 -0.362414,0.42814 -0.527343,0.66211 -1.230469,1.757812 -2.138672,3.867187 -2.72461,6.328125 -0.39355,1.633232 -0.644218,3.38818 -0.773437,5.246093 1.055837,2.15722 0.922273,3.419211 0.728515,3.742188 -0.08484,0.141415 -0.342938,0.36262 -0.796875,0.578125 0.08188,2.493803 0.354274,4.776619 0.841797,6.824219 0.32036,1.266183 0.731445,2.428499 1.226563,3.496094 3.188431,-0.883322 5.991634,-2.637298 7.796875,-5.646485 3.222566,-5.37175 1.345186,-11.54146 -2.00586,-16.566406 -1.064568,-1.596337 -2.338963,-3.153223 -3.765625,-4.664063 z"
       id="path4360"
       inkscape:connector-curvature="0" />
    <path
       style="font-style:normal;font-variant:normal;font-weight:bold;font-stretch:normal;font-size:90px;line-height:125%;font-family:Consolas;-inkscape-font-specification:'Consolas, Bold';text-align:start;letter-spacing:0px;word-spacing:0px;writing-mode:lr-tb;text-anchor:start;display:inline;fill:#8070e3;fill-opacity:1;stroke:none;stroke-width:1px;stroke-linecap:butt;stroke-linejoin:miter;stroke-opacity:1"
       d="m 71.597656,93.857422 c -0.827726,-3.217622 -1.24414,-6.856698 -1.24414,-10.923828 0,-0.08312 0.0035,-0.163298 0.0039,-0.246094 -2.541386,-0.845371 -5.255802,-2.042687 -7.9375,-3.595703 -2.595308,-1.502987 -4.899762,-3.19377 -6.84375,-4.910156 -1.19578,0.37307 -2.408978,0.69822 -3.648438,0.951171 -2.768798,0.565062 -5.775825,0.850962 -9.007812,0.871094 3.351435,4.477958 8.180576,8.640752 14.109375,12.074219 4.877692,2.824753 9.83815,4.777831 14.568359,5.779297 z"
       id="path4356"
       inkscape:connector-curvature="0" />
    <path
       style="font-style:normal;font-variant:normal;font-weight:bold;font-stretch:normal;font-size:90px;line-height:125%;font-family:Consolas;-inkscape-font-specification:'Consolas, Bold';text-align:start;letter-spacing:0px;word-spacing:0px;writing-mode:lr-tb;text-anchor:start;display:inline;fill:#8070e3;fill-opacity:1;stroke:none;stroke-width:1px;stroke-linecap:butt;stroke-linejoin:miter;stroke-opacity:1"
       d="m 38.306641,65.597656 c 1.613832,0.495459 3.45783,0.746094 5.535156,0.746094 0.673828,0 1.259765,-0.01563 1.757812,-0.04492 0.498047,-0.05859 0.966797,-0.132812 1.40625,-0.220703 0.439453,-0.08789 0.84961,-0.189453 1.230469,-0.306641 0.269395,-0.07697 0.555858,-0.170157 0.837891,-0.259765 -0.381435,-1.258131 -0.271123,-2.023353 -0.126953,-2.263672 0.06879,-0.114675 0.258702,-0.28146 0.564453,-0.455078 l 0,-10.84375 c -3.934339,0.675267 -7.490419,2.472426 -9.634766,6.046875 -1.457809,2.430047 -1.864409,5.024179 -1.570312,7.601562 z"
       id="path4349"
       inkscape:connector-curvature="0" />
    <path
       inkscape:connector-curvature="0"
       id="path4236"
       d="m 77.880533,60.023438 c -0.158292,0.165396 -0.320249,0.325291 -0.474272,0.496093 -2.139652,2.346101 -3.825265,5.196312 -5.066261,8.53711 4.03166,2.708391 7.174999,5.749836 8.991055,8.396484 0.456813,0.665739 0.791105,1.256506 1.067111,1.804687 0.132956,-1.857913 0.390877,-3.612861 0.795811,-5.246093 0.602887,-2.460938 1.537362,-4.570313 2.803426,-6.328125 0.169699,-0.23397 0.361012,-0.4422 0.542597,-0.66211 -2.430714,-2.501861 -5.340464,-4.860182 -8.659467,-6.998046 z"
       style="color:#000000;font-style:normal;font-variant:normal;font-weight:normal;font-stretch:normal;font-size:medium;line-height:normal;font-family:sans-serif;text-indent:0;text-align:start;text-decoration:none;text-decoration-line:none;text-decoration-style:solid;text-decoration-color:#000000;letter-spacing:normal;word-spacing:normal;text-transform:none;direction:ltr;block-progression:tb;writing-mode:lr-tb;baseline-shift:baseline;text-anchor:start;white-space:normal;clip-rule:nonzero;display:inline;overflow:visible;visibility:visible;opacity:1;isolation:auto;mix-blend-mode:normal;color-interpolation:sRGB;color-interpolation-filters:linearRGB;solid-color:#000000;solid-opacity:1;fill:#8070e3;fill-opacity:1;fill-rule:nonzero;stroke:none;stroke-width:10.48026943;stroke-linecap:butt;stroke-linejoin:miter;stroke-miterlimit:4;stroke-dasharray:none;stroke-dashoffset:0;stroke-opacity:1;color-rendering:auto;image-rendering:auto;shape-rendering:auto;text-rendering:auto;enable-background:accumulate" />
    <path
       inkscape:connector-curvature="0"
       id="path4240"
       d="m 53.305689,51.621094 c -1.315327,0.0088 -2.622906,0.115438 -3.893689,0.328125 l 0,10.84375 c 0.793955,-0.439633 2.432882,-0.922348 5.363838,-0.712891 1.646307,0.117651 3.549482,0.470605 5.586162,1.041016 l 0,-10.773438 c -1.597628,-0.320657 -3.171341,-0.538846 -4.704874,-0.648437 -0.78162,-0.05586 -1.566949,-0.08339 -2.351437,-0.07813 z"
       style="color:#000000;font-style:normal;font-variant:normal;font-weight:normal;font-stretch:normal;font-size:medium;line-height:normal;font-family:sans-serif;text-indent:0;text-align:start;text-decoration:none;text-decoration-line:none;text-decoration-style:solid;text-decoration-color:#000000;letter-spacing:normal;word-spacing:normal;text-transform:none;direction:ltr;block-progression:tb;writing-mode:lr-tb;baseline-shift:baseline;text-anchor:start;white-space:normal;clip-rule:nonzero;display:inline;overflow:visible;visibility:visible;opacity:1;isolation:auto;mix-blend-mode:normal;color-interpolation:sRGB;color-interpolation-filters:linearRGB;solid-color:#000000;solid-opacity:1;fill:#8070e3;fill-opacity:1;fill-rule:nonzero;stroke:none;stroke-width:10.48026943;stroke-linecap:butt;stroke-linejoin:miter;stroke-miterlimit:4;stroke-dasharray:none;stroke-dashoffset:0;stroke-opacity:1;color-rendering:auto;image-rendering:auto;shape-rendering:auto;text-rendering:auto;enable-background:accumulate" />
  </g>
  <g
     style="display:inline"
     inkscape:label="chain part copy"
     id="g4379"
     inkscape:groupmode="layer">
    <path
       inkscape:connector-curvature="0"
       id="path4381"
       d="m 60.189453,52.347656 0,10.773438 c 2.946089,0.846147 6.187692,2.182237 9.390625,4.037109 1.042438,0.603693 2.023187,1.244776 2.96875,1.898438 1.206107,-3.340798 2.84433,-6.191009 4.923828,-8.53711 0.149692,-0.170802 0.307097,-0.330697 0.460938,-0.496093 -0.958279,-0.635092 -1.937664,-1.257837 -2.962891,-1.851563 -4.951466,-2.867477 -9.986818,-4.8374 -14.78125,-5.824219 z"
       style="font-style:normal;font-variant:normal;font-weight:bold;font-stretch:normal;font-size:90px;line-height:125%;font-family:Consolas;-inkscape-font-specification:'Consolas, Bold';text-align:start;letter-spacing:0px;word-spacing:0px;writing-mode:lr-tb;text-anchor:start;display:inline;fill:#8070e3;fill-opacity:1;stroke:none;stroke-width:1px;stroke-linecap:butt;stroke-linejoin:miter;stroke-opacity:1" />
    <path
       inkscape:connector-curvature="0"
       id="path4385"
       d="m 71.597656,93.857422 c -0.827726,-3.217622 -1.24414,-6.856698 -1.24414,-10.923828 0,-0.08312 0.0035,-0.163298 0.0039,-0.246094 -2.541386,-0.845371 -5.255802,-2.042687 -7.9375,-3.595703 -2.595308,-1.502987 -4.899762,-3.19377 -6.84375,-4.910156 -1.19578,0.37307 -2.408978,0.69822 -3.648438,0.951171 -2.768798,0.565062 -5.775825,0.850962 -9.007812,0.871094 3.351435,4.477958 8.180576,8.640752 14.109375,12.074219 4.877692,2.824753 9.83815,4.777831 14.568359,5.779297 z"
       style="font-style:normal;font-variant:normal;font-weight:bold;font-stretch:normal;font-size:90px;line-height:125%;font-family:Consolas;-inkscape-font-specification:'Consolas, Bold';text-align:start;letter-spacing:0px;word-spacing:0px;writing-mode:lr-tb;text-anchor:start;display:inline;fill:#8070e3;fill-opacity:1;stroke:none;stroke-width:1px;stroke-linecap:butt;stroke-linejoin:miter;stroke-opacity:1" />
    <path
       id="path4391"
       style="color:#000000;font-style:normal;font-variant:normal;font-weight:normal;font-stretch:normal;font-size:medium;line-height:normal;font-family:sans-serif;text-indent:0;text-align:start;text-decoration:none;text-decoration-line:none;text-decoration-style:solid;text-decoration-color:#000000;letter-spacing:normal;word-spacing:normal;text-transform:none;direction:ltr;block-progression:tb;writing-mode:lr-tb;baseline-shift:baseline;text-anchor:start;white-space:normal;clip-rule:nonzero;display:inline;overflow:visible;visibility:visible;opacity:1;isolation:auto;mix-blend-mode:normal;color-interpolation:sRGB;color-interpolation-filters:linearRGB;solid-color:#000000;solid-opacity:1;fill:url(#radialGradient5867);fill-opacity:1;fill-rule:nonzero;stroke:none;stroke-width:10.48026943;stroke-linecap:butt;stroke-linejoin:miter;stroke-miterlimit:4;stroke-dasharray:none;stroke-dashoffset:0;stroke-opacity:1;color-rendering:auto;image-rendering:auto;shape-rendering:auto;text-rendering:auto;enable-background:accumulate"
       d="m 53.305689,51.621094 c -1.315327,0.0088 -2.622906,0.115438 -3.893689,0.328125 l 0,10.84375 c 0.793955,-0.439633 2.432882,-0.922348 5.363838,-0.712891 1.646307,0.117651 3.549482,0.470605 5.586162,1.041016 l 0,-10.773438 c -1.597628,-0.320657 -3.171341,-0.538846 -4.704874,-0.648437 -0.78162,-0.05586 -1.566949,-0.08339 -2.351437,-0.07813 z m 24.574844,8.402344 c -0.158292,0.165396 -0.320249,0.325291 -0.474272,0.496093 -2.139652,2.346101 -3.825265,5.196312 -5.066261,8.53711 4.03166,2.708391 7.174999,5.749836 8.991055,8.396484 0.456813,0.665739 0.791105,1.256506 1.067111,1.804687 0.132956,-1.857913 0.390877,-3.612861 0.795811,-5.246093 0.602887,-2.460938 1.537362,-4.570313 2.803426,-6.328125 0.169699,-0.23397 0.361012,-0.4422 0.542597,-0.66211 -2.430714,-2.501861 -5.340464,-4.860182 -8.659467,-6.998046 z m -39.573892,5.574218 c 1.613832,0.495459 3.45783,0.746094 5.535156,0.746094 0.673828,0 1.259765,-0.01563 1.757812,-0.04492 0.498047,-0.05859 0.966797,-0.132812 1.40625,-0.220703 0.439453,-0.08789 0.84961,-0.189453 1.230469,-0.306641 0.269395,-0.07697 0.555858,-0.170157 0.837891,-0.259765 -0.381435,-1.258131 -0.271123,-2.023353 -0.126953,-2.263672 0.06879,-0.114675 0.258702,-0.28146 0.564453,-0.455078 l 0,-10.84375 c -3.934339,0.675267 -7.490419,2.472426 -9.634766,6.046875 -1.457809,2.430047 -1.864409,5.024179 -1.570312,7.601562 z m 48.042968,1.423828 c -0.176479,0.21991 -0.362414,0.42814 -0.527343,0.66211 -1.230469,1.757812 -2.138672,3.867187 -2.72461,6.328125 -0.39355,1.633232 -0.644218,3.38818 -0.773437,5.246093 1.055837,2.15722 0.922273,3.419211 0.728515,3.742188 -0.08484,0.141415 -0.342938,0.36262 -0.796875,0.578125 0.08188,2.493803 0.354274,4.776619 0.841797,6.824219 0.32036,1.266183 0.731445,2.428499 1.226563,3.496094 3.188431,-0.883322 5.991634,-2.637298 7.796875,-5.646485 3.222566,-5.37175 1.345186,-11.54146 -2.00586,-16.566406 -1.064568,-1.596337 -2.338963,-3.153223 -3.765625,-4.664063 z m -26.160156,-14.673828 0,10.773438 c 2.946089,0.846147 6.187692,2.182237 9.390625,4.037109 1.042438,0.603693 2.023187,1.244776 2.96875,1.898438 1.206107,-3.340798 2.84433,-6.191009 4.923828,-8.53711 0.149692,-0.170802 0.307097,-0.330697 0.460938,-0.496093 -0.958279,-0.635092 -1.937664,-1.257837 -2.962891,-1.851563 -4.951466,-2.867477 -9.986818,-4.8374 -14.78125,-5.824219 z" />
  </g>
</svg>
